# xmcd CD database file
#
# Track frame offsets:
#	151
#	35435
#	54190
#	76918
#	114011
#	120920
#	139572
#	172376
#	198537
#	221763
#	231904
#	255768
#	269012
#
# Disc length: 3835 seconds
#
# Revision: 0
# Processed by: cddbd v1.5.2PL0 Copyright (c) Steve Scherf et al.
# Submitted via: CDex 1.70beta2
#
DISCID=ad0ef90d
DTITLE=土濃塚隆一郎 - SWEET HOME
DYEAR=2001
DGENRE=Jazz
TTITLE0=red cray
TTITLE1=fire dog
TTITLE2=smile
TTITLE3=sunset beach
TTITLE4=poem
TTITLE5=a-me-a-ga-ri
TTITLE6=night way
TTITLE7=chappin
TTITLE8=if I should lose you
TTITLE9=poem
TTITLE10=ballade
TTITLE11=sweet home
TTITLE12=a-me-a-ga-ri
EXTD=YEAR: 2001
EXTT0=
EXTT1=
EXTT2=
EXTT3=
EXTT4=
EXTT5=
EXTT6=
EXTT7=
EXTT8=
EXTT9=
EXTT10=
EXTT11=
EXTT12=
PLAYORDER=
